<svg xmlns="http://www.w3.org/2000/svg" width="38" height="38" viewBox="0 0 38 38">
  <defs>
    <style>
      .googleplus-1 {
        fill: #db4437;
      }

      .googleplus-2 {
        fill: #fff;
      }
    </style>
  </defs>
  <g id="Group_510" data-name="Group 510" transform="translate(-1230 -429)">
    <circle id="Ellipse_34" data-name="Ellipse 34" class="googleplus-1" cx="19" cy="19" r="19" transform="translate(1230 429)"/>
    <g id="google-plus" transform="translate(1237 344.595)">
      <g id="Group_474" data-name="Group 474" transform="translate(17.123 99.113)">
        <g id="Group_473" data-name="Group 473">
          <path id="Path_106" data-name="Path 106" class="googleplus-2" d="M356.67,163.113V160h-1.557v3.113H352v1.557h3.113v3.113h1.557V164.67h3.113v-1.557Z" transform="translate(-352 -160)"/>
        </g>
      </g>
      <g id="Group_476" data-name="Group 476" transform="translate(0 96)">
        <g id="Group_475" data-name="Group 475" transform="translate(0 0)">
          <path id="Path_107" data-name="Path 107" class="googleplus-2" d="M7.783,102.227v3.113h4.4a4.67,4.67,0,1,1-4.4-6.227,4.6,4.6,0,0,1,3.025,1.127l2.045-2.347A7.713,7.713,0,0,0,7.783,96a7.783,7.783,0,1,0,7.783,7.783v-1.557Z" transform="translate(0 -96)"/>
        </g>
      </g>
    </g>
  </g>
</svg>
