<svg xmlns="http://www.w3.org/2000/svg" width="48" height="48" viewBox="0 0 48 48">
  <defs>
    <style>
      .cls-bit-dark-1 {
        fill: #172341;
      }
    </style>
  </defs>
  <g id="_007-bitcoin" data-name="007-bitcoin" transform="translate(0.001 0)">
    <path id="Subtraction_7" data-name="Subtraction 7" class="cls-bit-dark-1" d="M24,48a24.179,24.179,0,0,1-4.837-.488A23.867,23.867,0,0,1,10.581,43.9a24.067,24.067,0,0,1-8.7-10.559,23.873,23.873,0,0,1-1.4-4.505,24.233,24.233,0,0,1,0-9.674A23.873,23.873,0,0,1,4.1,10.581a24.069,24.069,0,0,1,10.559-8.7,23.876,23.876,0,0,1,4.505-1.4,24.233,24.233,0,0,1,9.674,0A23.87,23.87,0,0,1,37.419,4.1a24.069,24.069,0,0,1,8.7,10.559,23.88,23.88,0,0,1,1.4,4.505,24.233,24.233,0,0,1,0,9.674A23.867,23.867,0,0,1,43.9,37.419a24.07,24.07,0,0,1-10.559,8.7,23.88,23.88,0,0,1-4.505,1.4A24.177,24.177,0,0,1,24,48ZM24,7.215A16.785,16.785,0,1,0,40.785,24,16.8,16.8,0,0,0,24,7.215Zm0,30.757A13.972,13.972,0,1,1,37.972,24,13.988,13.988,0,0,1,24,37.972Zm-1.787-5.659h1.814v2.5H26.84v-2.5h.679a5.054,5.054,0,0,0,2.226-9.593,4.594,4.594,0,0,0-2.905-6.777v-2.7H24.027v2.568H22.213V13.248H19.4v2.568h-2.5v2.813h2.5V29.5H16.9v2.813h2.5v2.5h2.813v-2.5ZM27.519,29.5H22.213V25.015h5.306a2.243,2.243,0,0,1,0,4.486Zm-1.751-7.3H22.213V18.629h3.555a1.787,1.787,0,0,1,0,3.574Z" transform="translate(-0.001)"/>
  </g>
</svg>
