<svg xmlns="http://www.w3.org/2000/svg" width="24.002" height="24.002" viewBox="0 0 24.002 24.002">
  <defs>
    <style>
      .cls_bit-1 {
        fill: #abb0ba;
      }
    </style>
  </defs>
  <g id="_007-bitcoin" data-name="007-bitcoin" transform="translate(0 0)">
    <path id="Subtraction_7" data-name="Subtraction 7" class="cls_bit-1" d="M12,24a12.091,12.091,0,0,1-2.419-.244,11.935,11.935,0,0,1-4.291-1.806,12.035,12.035,0,0,1-4.348-5.28,11.937,11.937,0,0,1-.7-2.253,12.117,12.117,0,0,1,0-4.837A11.937,11.937,0,0,1,2.05,5.291,12.036,12.036,0,0,1,7.33.943a11.939,11.939,0,0,1,2.253-.7,12.118,12.118,0,0,1,4.837,0A11.936,11.936,0,0,1,18.711,2.05a12.035,12.035,0,0,1,4.348,5.28,11.941,11.941,0,0,1,.7,2.253,12.117,12.117,0,0,1,0,4.837,11.934,11.934,0,0,1-1.806,4.291,12.036,12.036,0,0,1-5.28,4.348,11.942,11.942,0,0,1-2.253.7A12.09,12.09,0,0,1,12,24ZM12,3.608A8.393,8.393,0,1,0,20.394,12,8.4,8.4,0,0,0,12,3.608Zm0,15.38A6.987,6.987,0,1,1,18.988,12,6.995,6.995,0,0,1,12,18.988Zm-.894-2.83h.907V17.41h1.406V16.158h.34a2.527,2.527,0,0,0,1.113-4.8,2.3,2.3,0,0,0-1.453-3.389V6.624H12.015V7.909h-.907V6.624H9.7V7.909H8.454V9.315H9.7v5.436H8.449v1.406H9.7V17.41h1.406V16.158Zm2.653-1.406H11.108V12.508h2.653a1.122,1.122,0,0,1,0,2.243ZM12.885,11.1H11.108V9.315h1.777a.893.893,0,0,1,0,1.787Z" transform="translate(0)"/>
  </g>
</svg>
