<svg xmlns="http://www.w3.org/2000/svg" width="48" height="48" viewBox="0 0 48 48">
  <defs>
    <style>
      .cls-ins-dark-1 {
        fill: #172341;
      }
    </style>
  </defs>
  <g id="_004-instagram" data-name="004-instagram" transform="translate(0.001 0)">
    <path id="Subtraction_3" data-name="Subtraction 3" class="cls-ins-dark-1" d="M24,48a24.177,24.177,0,0,1-4.837-.488A23.866,23.866,0,0,1,10.581,43.9a24.071,24.071,0,0,1-8.7-10.559,23.881,23.881,0,0,1-1.4-4.505,24.236,24.236,0,0,1,0-9.674A23.867,23.867,0,0,1,4.1,10.581a24.067,24.067,0,0,1,10.559-8.7,23.879,23.879,0,0,1,4.505-1.4,24.233,24.233,0,0,1,9.674,0A23.87,23.87,0,0,1,37.418,4.1a24.069,24.069,0,0,1,8.7,10.559,23.88,23.88,0,0,1,1.4,4.505,24.233,24.233,0,0,1,0,9.674A23.87,23.87,0,0,1,43.9,37.419a24.069,24.069,0,0,1-10.559,8.7,23.881,23.881,0,0,1-4.5,1.4A24.177,24.177,0,0,1,24,48ZM17.1,7.406a9.7,9.7,0,0,0-9.69,9.69V30.9a9.7,9.7,0,0,0,9.69,9.69H30.9a9.7,9.7,0,0,0,9.69-9.69V17.1a9.7,9.7,0,0,0-9.69-9.69ZM30.9,37.781H17.1A6.885,6.885,0,0,1,10.219,30.9V17.1A6.885,6.885,0,0,1,17.1,10.219H30.9A6.886,6.886,0,0,1,37.781,17.1V30.9A6.886,6.886,0,0,1,30.9,37.781ZM24,15a9,9,0,1,0,9,9A9.01,9.01,0,0,0,24,15Zm9.009-1.3A1.287,1.287,0,1,0,34.3,14.99,1.289,1.289,0,0,0,33.009,13.7ZM24,30.187A6.187,6.187,0,1,1,30.187,24,6.194,6.194,0,0,1,24,30.187Z" transform="translate(-0.001)"/>
  </g>
</svg>
