<svg xmlns="http://www.w3.org/2000/svg" width="24.002" height="24.002" viewBox="0 0 24.002 24.002">
  <defs>
    <style>
      .cls_ins-1 {
        fill: #abb0ba;
      }
    </style>
  </defs>
  <g id="_004-instagram" data-name="004-instagram" transform="translate(0 0)">
    <path id="Subtraction_3" data-name="Subtraction 3" class="cls_ins-1" d="M12,24a12.089,12.089,0,0,1-2.419-.244,11.934,11.934,0,0,1-4.291-1.806,12.036,12.036,0,0,1-4.348-5.28,11.942,11.942,0,0,1-.7-2.253,12.119,12.119,0,0,1,0-4.837A11.935,11.935,0,0,1,2.05,5.291,12.035,12.035,0,0,1,7.33.943a11.941,11.941,0,0,1,2.253-.7,12.118,12.118,0,0,1,4.837,0A11.936,11.936,0,0,1,18.711,2.05a12.035,12.035,0,0,1,4.348,5.28,11.941,11.941,0,0,1,.7,2.253,12.118,12.118,0,0,1,0,4.837,11.936,11.936,0,0,1-1.806,4.291,12.036,12.036,0,0,1-5.28,4.348,11.941,11.941,0,0,1-2.253.7A12.089,12.089,0,0,1,12,24ZM8.549,3.7A4.851,4.851,0,0,0,3.7,8.549v6.9A4.851,4.851,0,0,0,8.549,20.3h6.9A4.851,4.851,0,0,0,20.3,15.453v-6.9A4.851,4.851,0,0,0,15.453,3.7Zm6.9,15.189h-6.9A3.443,3.443,0,0,1,5.11,15.453v-6.9A3.443,3.443,0,0,1,8.549,5.11h6.9a3.443,3.443,0,0,1,3.439,3.439v6.9A3.443,3.443,0,0,1,15.453,18.892ZM12,7.5A4.5,4.5,0,1,0,16.5,12,4.505,4.505,0,0,0,12,7.5Zm4.505-.648a.644.644,0,1,0,.644.644A.644.644,0,0,0,16.506,6.852ZM12,15.1A3.094,3.094,0,1,1,15.1,12,3.1,3.1,0,0,1,12,15.1Z" transform="translate(0)"/>
  </g>
</svg>
