<svg xmlns="http://www.w3.org/2000/svg" width="24.002" height="24.002" viewBox="0 0 24.002 24.002">
  <defs>
    <style>
      .cls_lin-1 {
        fill: #abb0ba;
      }
    </style>
  </defs>
  <g id="_003-linkedin" data-name="003-linkedin" transform="translate(0)">
    <path id="Subtraction_6" data-name="Subtraction 6" class="cls_lin-1" d="M12,24A12,12,0,0,1,7.33.943a12,12,0,0,1,9.343,22.116A11.927,11.927,0,0,1,12,24Zm2.849-12.654a1.264,1.264,0,0,1,1.116.541A2.506,2.506,0,0,1,16.3,13.3v4.616h2.869V12.967c0-2.431-1.234-3.883-3.3-3.883a2.836,2.836,0,0,0-2.586,1.425V9.287H10.415c.038.8,0,8.55,0,8.627h2.869V13.1a1.9,1.9,0,0,1,.1-.7,1.787,1.787,0,0,1,.516-.718A1.475,1.475,0,0,1,14.851,11.348ZM5.961,9.287v8.628H8.829V9.287ZM7.414,5.128a1.495,1.495,0,1,0-.038,2.982h.019a1.5,1.5,0,1,0,.019-2.982Z" transform="translate(0 0)"/>
  </g>
</svg>
