<svg xmlns="http://www.w3.org/2000/svg" width="48" height="48" viewBox="0 0 48 48">
  <defs>
    <style>
      .cls-lin-dark-1 {
        fill: #172341;
      }
    </style>
  </defs>
  <g id="_003-linkedin" data-name="003-linkedin" transform="translate(0 0)">
    <path id="Subtraction_6" data-name="Subtraction 6" class="cls-lin-dark-1" d="M24,48A24.006,24.006,0,0,1,14.658,1.886,24.006,24.006,0,0,1,33.342,46.114,23.851,23.851,0,0,1,24,48Zm5.7-25.307a2.527,2.527,0,0,1,2.231,1.081,5.012,5.012,0,0,1,.673,2.82v9.232h5.738v-9.9c0-4.862-2.469-7.765-6.6-7.765a5.671,5.671,0,0,0-5.171,2.851V18.572H20.828c.076,1.591,0,17.1,0,17.253h5.738V26.188a3.8,3.8,0,0,1,.19-1.4,3.574,3.574,0,0,1,1.032-1.436A2.949,2.949,0,0,1,29.7,22.693ZM11.921,18.572V35.827h5.735V18.572Zm2.906-8.317a2.99,2.99,0,1,0-.076,5.963h.037a2.991,2.991,0,1,0,.039-5.963Z" transform="translate(0 -0.001)"/>
  </g>
</svg>
