<svg xmlns="http://www.w3.org/2000/svg" width="24.002" height="24.002" viewBox="0 0 24.002 24.002">
  <defs>
    <style>
      .cls_red-1 {
        fill: #abb0ba;
      }
    </style>
  </defs>
  <g id="_001-reddit" data-name="001-reddit" transform="translate(0 0)">
    <path id="Path_108" data-name="Path 108" class="cls_red-1" d="M196.257,341.407a4.685,4.685,0,0,1-5.021,0,.324.324,0,1,0-.458.458,5.254,5.254,0,0,0,5.938,0,.328.328,0,0,0,0-.458A.323.323,0,0,0,196.257,341.407Zm0,0" transform="translate(-181.743 -325.312)"/>
    <path id="Path_109" data-name="Path 109" class="cls_red-1" d="M173.15,257.251A1.251,1.251,0,1,0,171.9,258.5,1.253,1.253,0,0,0,173.15,257.251Zm0,0" transform="translate(-162.648 -243.999)"/>
    <path id="Path_110" data-name="Path 110" class="cls_red-1" d="M12,0A12,12,0,1,0,24,12,12,12,0,0,0,12,0Zm6.963,13.6a3.482,3.482,0,0,1,.041.526C19.005,16.82,15.87,19,12,19S5,16.82,5,14.127a3.521,3.521,0,0,1,.041-.53,1.749,1.749,0,1,1,1.925-2.858,8.582,8.582,0,0,1,4.765-1.483c0-.024.874-4.186.874-4.186a.308.308,0,0,1,.134-.2.312.312,0,0,1,.235-.043l2.909.619a1.25,1.25,0,1,1-.127.612l-2.6-.554-.8,3.752a8.562,8.562,0,0,1,4.68,1.486A1.748,1.748,0,0,1,20,12a1.757,1.757,0,0,1-1.037,1.6Zm0,0"/>
    <path id="Path_111" data-name="Path 111" class="cls_red-1" d="M289.251,256a1.251,1.251,0,1,0,1.251,1.25A1.253,1.253,0,0,0,289.251,256Zm0,0" transform="translate(-274.499 -243.999)"/>
  </g>
</svg>
