<svg xmlns="http://www.w3.org/2000/svg" width="48" height="48" viewBox="0 0 48 48">
  <defs>
    <style>
      .cls-red-dark-1 {
        fill: #172341;
      }
    </style>
  </defs>
  <g id="_001-reddit" data-name="001-reddit" transform="translate(0 0)">
    <path id="Path_108" data-name="Path 108" class="cls-red-dark-1" d="M201.831,341.5c-1.075,1.075-3.379,1.459-5.021,1.459s-3.946-.384-5.021-1.459a.648.648,0,0,0-.917.917c1.7,1.7,4.978,1.838,5.937,1.838s4.229-.134,5.938-1.838a.655.655,0,0,0,0-.917.646.646,0,0,0-.917,0Zm0,0" transform="translate(-172.806 -309.314)"/>
    <path id="Path_109" data-name="Path 109" class="cls-red-dark-1" d="M175.65,258.5a2.5,2.5,0,1,0-2.5,2.5A2.505,2.505,0,0,0,175.65,258.5Zm0,0" transform="translate(-154.65 -232)"/>
    <path id="Path_110" data-name="Path 110" class="cls-red-dark-1" d="M24,0A24,24,0,1,0,48,24,24,24,0,0,0,24,0ZM37.925,27.2a6.963,6.963,0,0,1,.082,1.051c0,5.385-6.269,9.749-14,9.749s-14-4.363-14-9.749a7.041,7.041,0,0,1,.082-1.061,3.5,3.5,0,1,1,3.85-5.717,17.162,17.162,0,0,1,9.528-2.967c0-.048,1.747-8.371,1.747-8.371a.616.616,0,0,1,.269-.393.624.624,0,0,1,.471-.086L31.767,10.9a2.5,2.5,0,1,1-.255,1.224L26.3,11.011l-1.593,7.5a17.122,17.122,0,0,1,9.36,2.971A3.5,3.5,0,0,1,40,24a3.515,3.515,0,0,1-2.073,3.2Zm0,0"/>
    <path id="Path_111" data-name="Path 111" class="cls-red-dark-1" d="M290.5,256a2.5,2.5,0,1,0,2.5,2.5A2.505,2.505,0,0,0,290.5,256Zm0,0" transform="translate(-261 -232)"/>
  </g>
</svg>
