<svg xmlns="http://www.w3.org/2000/svg" width="48.001" height="48.002" viewBox="0 0 48.001 48.002">
  <defs>
    <style>
      .cls-twit-dark-1 {
        fill: #172341;
      }
    </style>
  </defs>
  <g id="_002-twitter" data-name="002-twitter" transform="translate(-0.001 0)">
    <path id="Subtraction_8" data-name="Subtraction 8" class="cls-twit-dark-1" d="M-4793-10438a23.842,23.842,0,0,1-16.971-7.029A23.844,23.844,0,0,1-4817-10462a23.844,23.844,0,0,1,7.029-16.972A23.842,23.842,0,0,1-4793-10486a23.84,23.84,0,0,1,16.971,7.029A23.848,23.848,0,0,1-4769-10462a23.848,23.848,0,0,1-7.03,16.972A23.84,23.84,0,0,1-4793-10438Zm-13.26-13.3h0a16.239,16.239,0,0,0,8.792,2.578,16.166,16.166,0,0,0,16.324-16.324c0-.269-.006-.512-.019-.742a11.527,11.527,0,0,0,2.863-2.969,11.381,11.381,0,0,1-3.295.9,5.739,5.739,0,0,0,2.524-3.173,11.475,11.475,0,0,1-3.642,1.392,5.776,5.776,0,0,0-4.19-1.811,5.744,5.744,0,0,0-5.737,5.737,5.645,5.645,0,0,0,.15,1.308,16.144,16.144,0,0,1-6.639-1.785,16.281,16.281,0,0,1-5.185-4.21,5.727,5.727,0,0,0-.779,2.885,5.726,5.726,0,0,0,2.553,4.773,5.7,5.7,0,0,1-2.6-.719v.074a5.749,5.749,0,0,0,4.6,5.624,5.748,5.748,0,0,1-1.511.2,5.659,5.659,0,0,1-1.079-.1,5.732,5.732,0,0,0,5.358,3.984,11.451,11.451,0,0,1-7.124,2.455A11.735,11.735,0,0,1-4806.259-10451.3Z" transform="translate(4817 10486)"/>
  </g>
</svg>
