<svg xmlns="http://www.w3.org/2000/svg" width="24.003" height="24.003" viewBox="0 0 24.003 24.003">
  <defs>
    <style>
      .cls_twit-1 {
        fill: #abb0ba;
      }
    </style>
  </defs>
  <g id="_002-twitter" data-name="002-twitter" transform="translate(0 0)">
    <path id="Subtraction_8" data-name="Subtraction 8" class="cls_twit-1" d="M12,24A12,12,0,0,1,3.515,3.515,12,12,0,1,1,20.487,20.488,11.921,11.921,0,0,1,12,24Zm-6.63-6.65h0A8.158,8.158,0,0,0,17.93,10.48c0-.134,0-.256-.009-.371a5.77,5.77,0,0,0,1.432-1.485,5.693,5.693,0,0,1-1.648.451,2.869,2.869,0,0,0,1.262-1.587,5.731,5.731,0,0,1-1.821.7,2.871,2.871,0,0,0-4.964,1.964,2.815,2.815,0,0,0,.075.654,8.067,8.067,0,0,1-3.32-.893A8.137,8.137,0,0,1,6.344,7.8a2.868,2.868,0,0,0,.887,3.83,2.851,2.851,0,0,1-1.3-.36v.037a2.874,2.874,0,0,0,2.3,2.812,2.865,2.865,0,0,1-.755.1,2.807,2.807,0,0,1-.539-.051,2.866,2.866,0,0,0,2.679,1.992,5.724,5.724,0,0,1-3.562,1.228A5.834,5.834,0,0,1,5.371,17.353Z" transform="translate(0 0)"/>
  </g>
</svg>
