<svg xmlns="http://www.w3.org/2000/svg" width="48" height="48" viewBox="0 0 48 48">
  <defs>
    <style>
      .cls-you-dark-1 {
        fill: #172341;
      }
    </style>
  </defs>
  <g id="_008-youtube" data-name="008-youtube" transform="translate(0.001 0)">
    <path id="Subtraction_5" data-name="Subtraction 5" class="cls-you-dark-1" d="M24,48a24.183,24.183,0,0,1-4.837-.488A23.871,23.871,0,0,1,10.581,43.9a24.07,24.07,0,0,1-8.7-10.559,23.874,23.874,0,0,1-1.4-4.505,24.23,24.23,0,0,1,0-9.674A23.871,23.871,0,0,1,4.1,10.581a24.068,24.068,0,0,1,10.559-8.7,23.869,23.869,0,0,1,4.505-1.4,24.23,24.23,0,0,1,9.674,0A23.871,23.871,0,0,1,37.419,4.1a24.07,24.07,0,0,1,8.7,10.559,23.894,23.894,0,0,1,1.4,4.505,24.236,24.236,0,0,1,0,9.674A23.864,23.864,0,0,1,43.9,37.419a24.068,24.068,0,0,1-10.559,8.7,23.878,23.878,0,0,1-4.505,1.4A24.185,24.185,0,0,1,24,48ZM15.837,15.726a3.645,3.645,0,0,0-3.64,3.643v9.768a3.645,3.645,0,0,0,3.64,3.643H32.918a3.646,3.646,0,0,0,3.641-3.643V19.369a3.645,3.645,0,0,0-3.64-3.643Zm6.1,12.647V19.2L28.9,23.786l-6.957,4.587Z" transform="translate(-0.001)"/>
  </g>
</svg>
