<svg xmlns="http://www.w3.org/2000/svg" width="38" height="38" viewBox="0 0 38 38">
  <defs>
    <style>
      .twitter-1 {
        fill: #26a6d1;
      }

      .twitter-2 {
        fill: #fff;
      }
    </style>
  </defs>
  <g id="Group_511" data-name="Group 511" transform="translate(-1298 -430)">
    <circle id="Ellipse_35" data-name="Ellipse 35" class="twitter-1" cx="19" cy="19" r="19" transform="translate(1298 430)"/>
    <path id="Path_103" data-name="Path 103" class="twitter-2" d="M23.037,2.068a9.241,9.241,0,0,1-2.6.692A4.425,4.425,0,0,0,22.429.331,9.168,9.168,0,0,1,19.556,1.4a4.581,4.581,0,0,0-3.3-1.385A4.456,4.456,0,0,0,11.734,4.4a4.259,4.259,0,0,0,.117,1A12.971,12.971,0,0,1,2.532.815,4.263,4.263,0,0,0,1.919,3.02,4.352,4.352,0,0,0,3.93,6.672a4.6,4.6,0,0,1-2.049-.55v.056a4.427,4.427,0,0,0,3.628,4.3,4.677,4.677,0,0,1-1.191.154,4.563,4.563,0,0,1-.85-.079,4.51,4.51,0,0,0,4.225,3.048,9.245,9.245,0,0,1-5.617,1.879A9.517,9.517,0,0,1,1,15.423,13.087,13.087,0,0,0,7.929,17.4,12.583,12.583,0,0,0,20.8,4.907l-.013-.568A9.025,9.025,0,0,0,23.037,2.068Z" transform="translate(1305.004 440.583)"/>
  </g>
</svg>
