<svg xmlns="http://www.w3.org/2000/svg" width="22.323" height="22.667" viewBox="0 0 22.323 22.667"><g transform="translate(-634.973 -311.442)"><path d="M23.662,3927.014l1.735,1.493,2.141-.81,1.12,2,2.289-.029.369,2.259,2.161.756-.426,2.25,1.772,1.449-1.169,1.968,1.169,1.968-1.772,1.45.426,2.249-2.161.756-.369,2.259L28.658,3947l-1.12,2-2.141-.81-1.735,1.493-1.735-1.493-2.141.81-1.12-2-2.289.028-.369-2.259-2.161-.756.426-2.249-1.772-1.45,1.169-1.968-1.169-1.968,1.772-1.449-.426-2.25,2.161-.756.369-2.259,2.289.029,1.12-2,2.141.81Z" transform="translate(622.473 -3615.571)" fill="#39a9dc"/><g transform="translate(640.339 318.604)"><g transform="translate(0 0)"><path d="M3.836,9.833A.7.7,0,0,1,3.309,9.6L1.385,7.458a.71.71,0,0,1,1.055-.949L3.912,8.145l8.327-6.787a.71.71,0,0,1,.9,1.1L4.285,9.673A.711.711,0,0,1,3.836,9.833Z" transform="translate(-1.204 -1.198)" fill="#fafafa"/></g></g></g></svg>